<mxfile host="Electron" agent="Mozilla/5.0 (Windows NT 10.0; Win64; x64) AppleWebKit/537.36 (KHTML, like Gecko) draw.io/26.0.16 Chrome/132.0.6834.196 Electron/34.2.0 Safari/537.36" version="26.0.16">
  <diagram name="Seite-1" id="b_XbzBWrFFkIECHBFSOW">
    <mxGraphModel dx="1634" dy="955" grid="1" gridSize="10" guides="1" tooltips="1" connect="1" arrows="1" fold="1" page="1" pageScale="1" pageWidth="827" pageHeight="1169" math="0" shadow="0">
      <root>
        <mxCell id="0" />
        <mxCell id="1" parent="0" />
        <mxCell id="hegPxGb6w45bhpu0NjjH-19" value="" style="rounded=0;whiteSpace=wrap;html=1;fillColor=none;" vertex="1" parent="1">
          <mxGeometry x="186" y="300" width="454.03" height="90" as="geometry" />
        </mxCell>
        <mxCell id="hegPxGb6w45bhpu0NjjH-17" value="" style="rounded=0;whiteSpace=wrap;html=1;fillColor=none;" vertex="1" parent="1">
          <mxGeometry x="186" y="90" width="454" height="210" as="geometry" />
        </mxCell>
        <mxCell id="hegPxGb6w45bhpu0NjjH-15" value="" style="rounded=0;whiteSpace=wrap;html=1;fillColor=none;" vertex="1" parent="1">
          <mxGeometry x="186" y="610" width="454.03" height="220" as="geometry" />
        </mxCell>
        <mxCell id="hegPxGb6w45bhpu0NjjH-12" value="" style="rounded=0;whiteSpace=wrap;html=1;fillColor=none;" vertex="1" parent="1">
          <mxGeometry x="186" y="390" width="454.03" height="220" as="geometry" />
        </mxCell>
        <mxCell id="hegPxGb6w45bhpu0NjjH-1" value="" style="shape=image;verticalLabelPosition=bottom;labelBackgroundColor=default;verticalAlign=top;aspect=fixed;imageAspect=0;image=https://fastapi.tiangolo.com/img/logo-margin/logo-teal.png;" vertex="1" parent="1">
          <mxGeometry x="246.11" y="320" width="166.5" height="60" as="geometry" />
        </mxCell>
        <mxCell id="hegPxGb6w45bhpu0NjjH-2" value="" style="image;sketch=0;aspect=fixed;html=1;points=[];align=center;fontSize=12;image=img/lib/mscae/Docker.svg;" vertex="1" parent="1">
          <mxGeometry x="249.03" y="110" width="121.95" height="100" as="geometry" />
        </mxCell>
        <mxCell id="hegPxGb6w45bhpu0NjjH-3" value="&lt;font style=&quot;font-size: 20px;&quot;&gt;PostgreSQL&lt;/font&gt;" style="image;aspect=fixed;html=1;points=[];align=center;fontSize=12;image=img/lib/azure2/databases/Azure_Database_PostgreSQL_Server.svg;" vertex="1" parent="1">
          <mxGeometry x="250.22" y="665" width="67.5" height="90" as="geometry" />
        </mxCell>
        <mxCell id="hegPxGb6w45bhpu0NjjH-4" value="&lt;font style=&quot;font-size: 20px;&quot;&gt;MinIO&lt;/font&gt;" style="sketch=0;outlineConnect=0;fontColor=#232F3E;gradientColor=none;strokeColor=#232F3E;fillColor=#ffffff;dashed=0;verticalLabelPosition=bottom;verticalAlign=top;align=center;html=1;fontSize=12;fontStyle=0;aspect=fixed;shape=mxgraph.aws4.resourceIcon;resIcon=mxgraph.aws4.bucket;" vertex="1" parent="1">
          <mxGeometry x="400.03" y="660" width="100" height="100" as="geometry" />
        </mxCell>
        <mxCell id="hegPxGb6w45bhpu0NjjH-5" value="" style="shape=image;verticalLabelPosition=bottom;labelBackgroundColor=default;verticalAlign=top;aspect=fixed;imageAspect=0;image=https://upload.wikimedia.org/wikipedia/commons/thumb/a/a1/Grafana_logo.svg/1200px-Grafana_logo.svg.png;" vertex="1" parent="1">
          <mxGeometry x="517.38" y="420" width="105.3" height="107.63" as="geometry" />
        </mxCell>
        <mxCell id="hegPxGb6w45bhpu0NjjH-6" value="Loki" style="shape=image;verticalLabelPosition=bottom;labelBackgroundColor=default;verticalAlign=top;aspect=fixed;imageAspect=0;image=https://grafana.com/media/docs/loki/logo-grafana-loki.png;fontSize=20;" vertex="1" parent="1">
          <mxGeometry x="292.5" y="484" width="85" height="85" as="geometry" />
        </mxCell>
        <mxCell id="hegPxGb6w45bhpu0NjjH-8" value="" style="shape=image;verticalLabelPosition=bottom;labelBackgroundColor=default;verticalAlign=top;aspect=fixed;imageAspect=0;image=https://www.derdack.com/de/wp-content/uploads/sites/5/2021/09/prometheus-logo-3.png;" vertex="1" parent="1">
          <mxGeometry x="230" y="380" width="198.73" height="104" as="geometry" />
        </mxCell>
        <mxCell id="hegPxGb6w45bhpu0NjjH-9" value="CI/CD" style="shape=mxgraph.sap.icon;labelPosition=center;verticalLabelPosition=bottom;align=center;verticalAlign=top;strokeWidth=1;strokeColor=#D5DADD;fillColor=#EDEFF0;gradientColor=#FCFCFC;gradientDirection=west;aspect=fixed;SAPIcon=SAP_Continuous_Integration_and_Delivery;fontSize=20;" vertex="1" parent="1">
          <mxGeometry x="525" y="110" width="80" height="80" as="geometry" />
        </mxCell>
        <mxCell id="hegPxGb6w45bhpu0NjjH-10" value="" style="shape=image;verticalLabelPosition=bottom;labelBackgroundColor=default;verticalAlign=top;aspect=fixed;imageAspect=0;image=https://www.sectigo.com/uploads/images/_950xAUTO_fit_center-center_none/nginx-large.png;" vertex="1" parent="1">
          <mxGeometry x="215.00000000000003" y="209.99999999999997" width="190" height="96.6" as="geometry" />
        </mxCell>
        <mxCell id="hegPxGb6w45bhpu0NjjH-11" value="" style="dashed=0;outlineConnect=0;html=1;align=center;labelPosition=center;verticalLabelPosition=bottom;verticalAlign=top;shape=mxgraph.weblogos.github" vertex="1" parent="1">
          <mxGeometry x="460" y="115" width="75" height="75" as="geometry" />
        </mxCell>
        <mxCell id="hegPxGb6w45bhpu0NjjH-13" value="Monitoring &amp;amp; Logging" style="rounded=0;whiteSpace=wrap;html=1;fillColor=#fff2cc;strokeColor=#d6b656;" vertex="1" parent="1">
          <mxGeometry x="500.03" y="580" width="140" height="30" as="geometry" />
        </mxCell>
        <mxCell id="hegPxGb6w45bhpu0NjjH-16" value="Storage" style="rounded=0;whiteSpace=wrap;html=1;fillColor=#fff2cc;strokeColor=#d6b656;" vertex="1" parent="1">
          <mxGeometry x="500.03" y="800" width="140" height="30" as="geometry" />
        </mxCell>
        <mxCell id="hegPxGb6w45bhpu0NjjH-18" value="Integration &amp;amp; Deployment" style="rounded=0;whiteSpace=wrap;html=1;fillColor=#fff2cc;strokeColor=#d6b656;" vertex="1" parent="1">
          <mxGeometry x="500.03" y="270" width="140" height="30" as="geometry" />
        </mxCell>
        <mxCell id="hegPxGb6w45bhpu0NjjH-20" value="Backend-Service" style="rounded=0;whiteSpace=wrap;html=1;fillColor=#fff2cc;strokeColor=#d6b656;" vertex="1" parent="1">
          <mxGeometry x="500.03" y="360" width="140" height="30" as="geometry" />
        </mxCell>
      </root>
    </mxGraphModel>
  </diagram>
</mxfile>
